<svg 
 xmlns="http://www.w3.org/2000/svg"
 xmlns:xlink="http://www.w3.org/1999/xlink"
 width="1658px" height="1063px">
<defs>
<linearGradient id="PSgrad_0" x1="0%" x2="64.279%" y1="0%" y2="76.604%">
  <stop offset="0%" stop-color="rgb(28,81,231)" stop-opacity="1" />
  <stop offset="100%" stop-color="rgb(160,123,228)" stop-opacity="1" />
</linearGradient>

</defs>
<path fill-rule="evenodd"  stroke="rgb(230, 230, 230)" stroke-width="1px" stroke-dasharray="0, 6" stroke-linecap="butt" stroke-linejoin="miter" opacity="0.102" fill="rgb(255, 160, 211)"
 d="M10.500,640.500 C10.500,640.500 -12.307,659.531 12.500,668.500 C12.500,668.500 31.424,674.665 33.500,657.500 C33.500,657.500 35.764,629.159 10.500,640.500 Z"/>
<path fill-rule="evenodd"  stroke="rgb(230, 230, 230)" stroke-width="1px" stroke-dasharray="0, 6" stroke-linecap="butt" stroke-linejoin="miter" opacity="0.102" fill="rgb(255, 160, 211)"
 d="M155.848,534.250 C155.848,534.250 97.827,582.192 160.936,604.784 C160.936,604.784 209.078,620.313 214.360,577.074 C214.360,577.074 220.120,505.683 155.848,534.250 Z"/>
<path fill-rule="evenodd"  stroke="rgb(230, 230, 230)" stroke-width="1px" stroke-dasharray="0, 6" stroke-linecap="butt" stroke-linejoin="miter" opacity="0.102" fill="rgb(255, 160, 211)"
 d="M329.609,189.833 C329.609,189.833 214.966,284.515 339.663,329.136 C339.663,329.136 434.787,359.806 445.224,274.409 C445.224,274.409 456.605,133.411 329.609,189.833 Z"/>
<path fill-rule="evenodd"  opacity="0.078" fill="url(#PSgrad_0)"
 d="M840.729,974.980 C840.077,976.210 791.423,971.517 708.738,951.652 C627.364,929.314 511.959,891.807 408.095,770.314 C408.064,770.372 366.079,719.546 342.573,626.275 C336.645,603.055 331.798,577.320 328.813,549.513 C327.319,535.611 326.289,521.193 325.817,506.324 C325.580,498.890 325.483,491.343 325.536,483.690 C325.590,476.038 325.794,468.282 326.160,460.429 C329.108,397.571 342.350,328.698 372.219,257.171 C372.242,257.129 425.946,165.738 528.023,100.524 C579.068,67.906 642.209,41.827 716.740,37.057 C726.056,36.461 735.551,36.198 745.222,36.296 C754.893,36.393 764.741,36.853 774.765,37.703 C794.811,39.403 815.560,42.664 836.999,47.717 C879.877,57.822 925.517,75.097 973.848,101.354 C1036.415,150.980 1099.058,200.464 1161.752,249.851 C1238.519,317.250 1315.377,384.479 1391.926,452.287 C1392.178,451.813 1591.672,663.507 1620.944,737.539 C1628.301,755.973 1640.203,780.652 1648.425,808.783 C1652.535,822.850 1655.724,837.784 1656.953,853.252 C1657.260,857.119 1657.445,861.020 1657.491,864.949 C1657.537,868.878 1657.444,872.835 1657.197,876.815 C1656.703,884.775 1655.589,892.826 1653.728,900.924 C1639.856,963.799 1573.052,1039.324 1410.592,1061.657 C1410.578,1061.682 1355.428,1066.726 1260.045,1051.956 C1236.145,1048.367 1209.659,1043.673 1180.567,1037.965 C1173.293,1036.539 1165.855,1035.053 1158.251,1033.510 C1150.646,1031.968 1142.876,1030.369 1134.935,1028.721 C1119.055,1025.425 1102.497,1021.931 1085.229,1018.307 C1016.137,1003.844 935.760,987.150 840.729,974.980 L840.729,974.980 Z"/>
<path fill-rule="evenodd"  stroke="rgb(254, 104, 139)" stroke-width="1px" stroke-linecap="butt" stroke-linejoin="miter" opacity="0.2" fill="none"
 d="M773.579,987.997 C773.422,988.352 724.589,986.073 650.708,954.553 C577.142,922.321 478.527,860.849 386.088,726.325 C386.081,726.341 348.589,670.509 326.558,577.778 C321.039,554.623 316.467,529.202 313.632,501.901 C312.215,488.250 311.231,474.131 310.778,459.593 C310.552,452.324 310.458,444.950 310.510,437.478 C310.561,430.006 310.757,422.436 311.111,414.774 C313.942,353.468 326.805,286.329 356.025,216.392 C356.030,216.380 408.554,127.004 508.287,63.263 C558.156,31.391 619.827,5.925 692.627,1.266 C701.727,0.683 711.001,0.426 720.448,0.522 C729.895,0.618 739.514,1.066 749.304,1.897 C768.885,3.557 789.152,6.742 810.093,11.677 C851.975,21.547 896.556,38.417 943.755,64.077 C1004.853,112.572 1065.969,161.027 1127.098,209.454 C1201.933,275.543 1276.789,341.583 1351.572,407.790 C1351.632,407.653 1546.979,613.550 1575.767,685.509 C1582.974,703.477 1594.628,727.531 1602.667,754.992 C1606.686,768.723 1609.801,783.307 1611.001,798.415 C1611.301,802.192 1611.482,806.002 1611.527,809.839 C1611.572,813.676 1611.482,817.541 1611.240,821.428 C1610.757,829.202 1609.669,837.066 1607.851,844.977 C1593.546,907.712 1531.253,976.266 1362.013,1016.654 C1362.010,1016.661 1304.529,1027.946 1203.057,1028.141 C1177.676,1028.220 1149.529,1027.643 1118.765,1026.202 C1111.073,1025.841 1103.218,1025.428 1095.201,1024.959 C1087.184,1024.490 1079.005,1023.965 1070.666,1023.383 C1053.987,1022.218 1036.668,1020.823 1018.718,1019.188 C946.917,1012.659 865.061,1002.244 773.579,987.997 L773.579,987.997 Z"/>
</svg>